<?xml version="1.0" standalone="no"?>
<!DOCTYPE svg PUBLIC "-//W3C//DTD SVG 20010904//EN"
 "http://www.w3.org/TR/2001/REC-SVG-20010904/DTD/svg10.dtd">
<svg version="1.0" xmlns="http://www.w3.org/2000/svg"
 width="1024.000000pt" height="1024.000000pt" viewBox="0 0 1024.000000 1024.000000"
 preserveAspectRatio="xMidYMid meet">

<g transform="translate(0.000000,1024.000000) scale(0.100000,-0.100000)"
fill="#000000" stroke="none">
<path d="M6473 7211 c-29 -10 -70 -30 -91 -44 -21 -14 -442 -429 -935 -924
l-896 -898 -1 -407 0 -408 408 0 407 0 911 913 c804 804 914 918 933 965 51
123 48 222 -11 342 -25 51 -64 98 -187 224 -161 164 -221 211 -305 239 -64 22
-166 21 -233 -2z m-286 -1043 l133 -133 -557 -557 -558 -558 -132 0 -133 0 0
137 0 138 552 552 c304 304 555 553 558 553 3 0 64 -60 137 -132z"/>
<path d="M3670 6826 c-121 -40 -220 -141 -259 -265 -17 -53 -15 -2853 2 -2906
39 -124 140 -224 266 -264 53 -17 2853 -15 2906 2 124 39 224 140 264 266 8
23 11 316 11 930 l0 896 -190 -190 -190 -190 0 -672 0 -673 -1350 0 -1350 0 0
1350 0 1350 668 0 667 0 190 190 190 190 -895 -1 c-652 -1 -904 -4 -930 -13z"/>
</g>
</svg>
